<?xml version="1.0" encoding="UTF-8"?>
<!DOCTYPE svg PUBLIC "-//W3C//DTD SVG 1.1//EN" "http://www.w3.org/Graphics/SVG/1.1/DTD/svg11.dtd">
<!-- Creator: CorelDRAW X8 -->
<svg xmlns="http://www.w3.org/2000/svg" xml:space="preserve" width="86.699mm" height="86.699mm" version="1.1" style="shape-rendering:geometricPrecision; text-rendering:geometricPrecision; image-rendering:optimizeQuality; fill-rule:evenodd; clip-rule:evenodd"
viewBox="0 0 8670 8670"
 xmlns:xlink="http://www.w3.org/1999/xlink">
 <defs>
  <style type="text/css">
   <![CDATA[
    .fil4 {fill:black}
    .fil1 {fill:#DF6243}
    .fil0 {fill:#FF724F}
    .fil2 {fill:#FF8263}
    .fil3 {fill:#FFCCBF}
   ]]>
  </style>
 </defs>
 <g id="Layer_x0020_1">
  <metadata id="CorelCorpID_0Corel-Layer"/>
  <path class="fil0" d="M7299 6466l-2952 1620 -2951 -1620 0 -3241 2951 -1621 2952 1621 0 3241zm0 0z"/>
  <path class="fil1" d="M1396 3225l0 0 2951 1620 2952 -1620 0 0 -2952 -1621 -2951 1621zm0 0z"/>
  <path class="fil2" d="M1396 3226l0 3240 2951 1620 2 -1 0 -3240 -2951 -1620 -2 1zm0 0z"/>
  <path class="fil3" d="M7299 3225l974 974 -2951 1621 -975 -975 2952 -1620zm0 0z"/>
  <path class="fil3" d="M1396 3225l-974 974 2951 1621 974 -975 -2951 -1620zm0 0z"/>
  <path class="fil3" d="M7299 3225l974 -975 -2951 -1620 -975 974 2952 1621zm0 0z"/>
  <path class="fil3" d="M1396 3225l-974 -975 2951 -1620 974 974 -2951 1621zm0 0z"/>
  <path class="fil4" d="M7524 3225l862 -862c36,-35 52,-86 45,-135 -7,-50 -37,-93 -81,-118l-1036 -568c-77,-43 -174,-15 -217,63 -42,77 -14,174 63,216l850 467 -740 739 -2659 -1460 739 -740 748 411c77,42 174,14 216,-63 43,-77 15,-175 -63,-217l-852 -468c-62,-34 -140,-23 -190,27l-862 862 -861 -862c-50,-50 -128,-61 -190,-27l-2951 1620c-44,25 -74,68 -81,118 -7,49 9,100 45,135l862 862 -862 861c-36,36 -52,86 -45,136 7,49 37,93 81,117l892 490 0 1637c0,58 32,112 83,140l2951 1620c24,13 50,20 76,20 27,0 53,-7 77,-20l2951 -1620c51,-28 83,-82 83,-140l0 -1637 892 -490c44,-24 74,-68 81,-117 7,-50 -10,-100 -45,-136l-862 -861zm-3177 1438l-2619 -1438 2619 -1439 2620 1439 -2620 1438zm-1002 -3836l739 740 -2659 1460 -740 -739 2660 -1461zm-1920 2595l2659 1461 -739 739 -2660 -1460 740 -740zm5714 2949l-2632 1445 0 -1631c0,-88 -71,-159 -160,-159 -88,0 -159,71 -159,159l0 1631 -2632 -1445 0 -1367 1740 956c24,13 51,19 77,19 41,0 82,-16 113,-46l861 -862 862 862c31,30 72,46 113,46 26,0 53,-6 77,-19l1740 -956 0 1367zm-1789 -749l-739 -739 2659 -1461 740 740 -2660 1460zm0 0z"/>
  <path class="fil4" d="M6722 1558c42,0 83,-17 113,-47 30,-29 47,-70 47,-112 0,-42 -17,-84 -47,-113 -30,-30 -71,-47 -113,-47 -42,0 -83,17 -113,47 -30,29 -47,71 -47,113 0,42 17,83 47,112 30,30 71,47 113,47zm0 0z"/>
  <path class="fil4" d="M4347 5496c-41,0 -83,17 -112,47 -30,29 -47,70 -47,112 0,42 17,83 47,113 29,30 71,47 112,47 42,0 84,-17 113,-47 30,-30 47,-71 47,-113 0,-42 -17,-83 -47,-112 -29,-30 -71,-47 -113,-47zm0 0z"/>
 </g>
</svg>
